<?xml version="1.0" encoding="UTF-8" standalone="no"?>
<svg
   xmlns:dc="http://purl.org/dc/elements/1.1/"
   xmlns:cc="http://creativecommons.org/ns#"
   xmlns:rdf="http://www.w3.org/1999/02/22-rdf-syntax-ns#"
   xmlns:svg="http://www.w3.org/2000/svg"
   xmlns="http://www.w3.org/2000/svg"
   xmlns:sodipodi="http://sodipodi.sourceforge.net/DTD/sodipodi-0.dtd"
   xmlns:inkscape="http://www.inkscape.org/namespaces/inkscape"
   id="svg8"
   version="1.1"
   viewBox="0 0 689.45508 597.08564"
   height="597.08563mm"
   width="689.45508mm"
   sodipodi:docname="drawing.svg"
   inkscape:version="0.92.4 (5da689c313, 2019-01-14)">
  <sodipodi:namedview
     pagecolor="#ffffff"
     bordercolor="#666666"
     borderopacity="1"
     objecttolerance="10"
     gridtolerance="10"
     guidetolerance="10"
     inkscape:pageopacity="0"
     inkscape:pageshadow="2"
     inkscape:window-width="2560"
     inkscape:window-height="1583"
     id="namedview903"
     showgrid="false"
     fit-margin-top="0"
     fit-margin-left="0"
     fit-margin-right="0"
     fit-margin-bottom="0"
     inkscape:zoom="0.60708071"
     inkscape:cx="1304.5545"
     inkscape:cy="1186.0037"
     inkscape:window-x="0"
     inkscape:window-y="0"
     inkscape:window-maximized="1"
     inkscape:current-layer="svg8" />
  <defs
     id="defs2" />
  <metadata
     id="metadata5">
    <rdf:RDF>
      <cc:Work
         rdf:about="">
        <dc:format>image/svg+xml</dc:format>
        <dc:type
           rdf:resource="http://purl.org/dc/dcmitype/StillImage" />
        <dc:title></dc:title>
      </cc:Work>
    </rdf:RDF>
  </metadata>
  <path
     style="fill:#8c00cd;fill-opacity:1;stroke-width:0.26458332"
     id="path823"
     d="m 517.09131,74.6357 43.09094,74.6357 h 86.18189 L 689.45508,74.6357 646.36414,0 h -86.18189 z"
     inkscape:connector-curvature="0" />
  <path
     d="m 344.72754,74.6357 43.09094,74.6357 h 86.18189 L 517.09131,74.6357 474.00037,0 h -86.18189 z"
     id="path825"
     style="fill:#c464ff;fill-opacity:1;stroke-width:0.26458332"
     inkscape:connector-curvature="0" />
  <path
     style="fill:#8c00cd;fill-opacity:1;stroke-width:0.26458332"
     id="path827"
     d="m 172.36377,74.6357 43.09094,74.6357 H 301.6366 L 344.72754,74.6357 301.6366,0 h -86.18189 z"
     inkscape:connector-curvature="0" />
  <path
     d="m 689.45508,223.90709 -43.09094,74.63571 h -86.18189 l -43.09094,-74.63571 43.09094,-74.6357 h 86.18189 z"
     id="path829"
     style="fill:#c464ff;fill-opacity:1;stroke-width:0.26458332"
     inkscape:connector-curvature="0" />
  <path
     style="fill:#8c00cd;fill-opacity:1;stroke-width:0.26458332"
     id="path831"
     d="m 517.09131,522.44991 -43.09094,74.6357 h -86.18189 l -43.09094,-74.6357 43.09094,-74.63571 h 86.18189 z"
     inkscape:connector-curvature="0" />
  <path
     d="m 344.72754,522.44991 -43.09094,74.6357 h -86.18189 l -43.09094,-74.6357 43.09094,-74.63571 h 86.18189 z"
     id="path833"
     style="fill:#c464ff;fill-opacity:1;stroke-width:0.26458332"
     inkscape:connector-curvature="0" />
  <path
     style="fill:#8c00cd;fill-opacity:1;stroke-width:0.26458332"
     id="path835"
     d="m 172.36377,522.44991 -43.09094,74.6357 H 43.09094 L 0,522.44991 43.09094,447.8142 h 86.18189 z"
     inkscape:connector-curvature="0" />
  <path
     d="m 172.36377,373.1785 -43.09094,74.6357 H 43.09094 L 0,373.1785 43.09094,298.5428 h 86.18189 z"
     id="path837"
     style="fill:#c464ff;fill-opacity:1;stroke-width:0.26458332"
     inkscape:connector-curvature="0" />
  <path
     d="m 0,74.6357 43.09094,74.6357 h 86.18189 L 172.36377,74.6357 129.27283,0 H 43.09094 Z"
     id="path839"
     style="fill:#c464ff;fill-opacity:1;stroke-width:0.26458332"
     inkscape:connector-curvature="0" />
  <path
     style="fill:#8c00cd;fill-opacity:1;stroke-width:0.26458332"
     id="path841"
     d="m 689.45508,373.1785 -43.09094,74.6357 h -86.18189 l -43.09094,-74.6357 43.09094,-74.6357 h 86.18189 z"
     inkscape:connector-curvature="0" />
  <path
     d="m 689.45508,522.44991 -43.09094,74.6357 h -86.18189 l -43.09094,-74.6357 43.09094,-74.63571 h 86.18189 z"
     id="path843"
     style="fill:#c464ff;fill-opacity:1;stroke-width:0.26458332"
     inkscape:connector-curvature="0" />
  <path
     d="m 0,223.9071 43.09094,74.6357 h 86.18189 l 43.09094,-74.6357 -43.09094,-74.6357 H 43.09094 Z"
     id="path853"
     style="fill:#8c00cd;fill-opacity:1;stroke-width:0.26458332"
     inkscape:connector-curvature="0" />
</svg>
